<svg width="232" height="64" viewBox="0 0 232 64" fill="none" xmlns="http://www.w3.org/2000/svg">
<path d="M92.7227 46C92.4362 46 92.1823 45.8763 91.9609 45.6289C91.7526 45.3815 91.6484 45.0885 91.6484 44.75V17.3086C91.6484 16.9701 91.7526 16.6771 91.9609 16.4297C92.1823 16.1823 92.4362 16.0586 92.7227 16.0586H102.234C103.328 16.0586 104.448 16.1888 105.594 16.4492C106.74 16.6966 107.801 17.1068 108.777 17.6797C109.754 18.2526 110.542 19.0273 111.141 20.0039C111.74 20.9674 112.039 22.1654 112.039 23.5977C112.039 24.8867 111.792 25.987 111.297 26.8984C110.815 27.8099 110.184 28.5391 109.402 29.0859C108.621 29.6198 107.781 29.9779 106.883 30.1602V30.2383C108.081 30.2904 109.227 30.5638 110.32 31.0586C111.427 31.5534 112.332 32.2956 113.035 33.2852C113.738 34.2617 114.09 35.5052 114.09 37.0156C114.09 38.6432 113.79 40.0299 113.191 41.1758C112.592 42.3216 111.766 43.2526 110.711 43.9688C109.669 44.6719 108.458 45.1862 107.078 45.5117C105.711 45.8372 104.253 46 102.703 46H92.7227ZM102.664 41.8398C103.719 41.8398 104.721 41.7031 105.672 41.4297C106.622 41.1562 107.397 40.6745 107.996 39.9844C108.595 39.2943 108.895 38.3307 108.895 37.0938C108.895 36.0781 108.66 35.2708 108.191 34.6719C107.723 34.0729 107.104 33.6237 106.336 33.3242C105.581 33.0117 104.747 32.8099 103.836 32.7188C102.938 32.6146 102.046 32.5625 101.16 32.5625C100.796 32.5625 100.431 32.569 100.066 32.582C99.7148 32.5951 99.3568 32.6081 98.9922 32.6211C98.6406 32.6341 98.2826 32.6471 97.918 32.6602L96.4922 32.7188V41.8398H102.664ZM96.4922 28.793C97.2734 28.793 98.0612 28.7865 98.8555 28.7734C99.6497 28.7604 100.444 28.7279 101.238 28.6758C103.23 28.5586 104.695 28.1094 105.633 27.3281C106.583 26.5469 107.059 25.4206 107.059 23.9492C107.059 22.6471 106.557 21.6966 105.555 21.0977C104.552 20.4857 103.068 20.1797 101.102 20.1797H96.4922V28.793ZM121.102 46C120.815 46 120.561 45.8763 120.34 45.6289C120.132 45.3815 120.027 45.0885 120.027 44.75V31.2539C120.027 30.3815 120.008 29.4961 119.969 28.5977C119.93 27.6862 119.819 26.7747 119.637 25.8633C119.624 25.7721 119.611 25.6875 119.598 25.6094C119.585 25.5312 119.578 25.4531 119.578 25.375C119.578 24.9714 119.676 24.6393 119.871 24.3789C120.079 24.1055 120.392 23.9688 120.809 23.9688H121.863C122.28 23.9688 122.605 24.0534 122.84 24.2227C123.074 24.3789 123.257 24.6068 123.387 24.9062C123.569 25.3099 123.745 25.8893 123.914 26.6445C124.096 27.3867 124.233 28.0638 124.324 28.6758C124.324 28.6888 124.331 28.6953 124.344 28.6953C124.37 28.6953 124.383 28.6888 124.383 28.6758C124.552 27.5299 124.878 26.5729 125.359 25.8047C125.854 25.0365 126.466 24.457 127.195 24.0664C127.924 23.6758 128.725 23.4805 129.598 23.4805C129.923 23.4805 130.372 23.513 130.945 23.5781C131.518 23.6302 132.026 23.7734 132.469 24.0078C132.924 24.2422 133.12 24.6198 133.055 25.1406L132.742 27.6016C132.703 27.9271 132.592 28.1745 132.41 28.3438C132.241 28.513 132.013 28.5977 131.727 28.5977C131.271 28.5977 130.822 28.5195 130.379 28.3633C129.949 28.194 129.493 28.1094 129.012 28.1094C128.374 28.1094 127.794 28.3112 127.273 28.7148C126.753 29.1055 126.303 29.6198 125.926 30.2578C125.561 30.8958 125.275 31.5729 125.066 32.2891C124.871 33.0052 124.773 33.6888 124.773 34.3398V44.75C124.773 45.0885 124.669 45.3815 124.461 45.6289C124.253 45.8763 123.999 46 123.699 46H121.102ZM145.652 46.4883C143.426 46.4883 141.486 45.9935 139.832 45.0039C138.191 44.0143 136.915 42.6536 136.004 40.9219C135.092 39.1771 134.637 37.1849 134.637 34.9453C134.637 32.6406 135.125 30.6289 136.102 28.9102C137.078 27.1914 138.4 25.8568 140.066 24.9062C141.733 23.9557 143.595 23.4805 145.652 23.4805C148.061 23.4805 150.079 23.9557 151.707 24.9062C153.348 25.8568 154.585 27.1914 155.418 28.9102C156.251 30.6289 156.668 32.6406 156.668 34.9453C156.668 37.25 156.18 39.2682 155.203 41C154.227 42.7318 152.905 44.0794 151.238 45.043C149.585 46.0065 147.723 46.4883 145.652 46.4883ZM145.73 42.4453C147.189 42.4453 148.361 42.1133 149.246 41.4492C150.132 40.7852 150.776 39.8932 151.18 38.7734C151.583 37.6406 151.785 36.3971 151.785 35.043C151.785 33.8841 151.59 32.7318 151.199 31.5859C150.809 30.4271 150.164 29.4635 149.266 28.6953C148.38 27.9271 147.169 27.543 145.633 27.543C144.161 27.543 142.977 27.9141 142.078 28.6562C141.18 29.3984 140.529 30.3555 140.125 31.5273C139.721 32.6992 139.52 33.9297 139.52 35.2188C139.52 36.4427 139.741 37.6081 140.184 38.7148C140.639 39.8216 141.323 40.7201 142.234 41.4102C143.159 42.1003 144.324 42.4453 145.73 42.4453ZM171.98 46.4883C169.754 46.4883 167.814 45.9935 166.16 45.0039C164.52 44.0143 163.243 42.6536 162.332 40.9219C161.421 39.1771 160.965 37.1849 160.965 34.9453C160.965 32.6406 161.453 30.6289 162.43 28.9102C163.406 27.1914 164.728 25.8568 166.395 24.9062C168.061 23.9557 169.923 23.4805 171.98 23.4805C174.389 23.4805 176.408 23.9557 178.035 24.9062C179.676 25.8568 180.913 27.1914 181.746 28.9102C182.579 30.6289 182.996 32.6406 182.996 34.9453C182.996 37.25 182.508 39.2682 181.531 41C180.555 42.7318 179.233 44.0794 177.566 45.043C175.913 46.0065 174.051 46.4883 171.98 46.4883ZM172.059 42.4453C173.517 42.4453 174.689 42.1133 175.574 41.4492C176.46 40.7852 177.104 39.8932 177.508 38.7734C177.911 37.6406 178.113 36.3971 178.113 35.043C178.113 33.8841 177.918 32.7318 177.527 31.5859C177.137 30.4271 176.492 29.4635 175.594 28.6953C174.708 27.9271 173.497 27.543 171.961 27.543C170.49 27.543 169.305 27.9141 168.406 28.6562C167.508 29.3984 166.857 30.3555 166.453 31.5273C166.049 32.6992 165.848 33.9297 165.848 35.2188C165.848 36.4427 166.069 37.6081 166.512 38.7148C166.967 39.8216 167.651 40.7201 168.562 41.4102C169.487 42.1003 170.652 42.4453 172.059 42.4453ZM196.551 46.4883C194.949 46.4883 193.562 46.1758 192.391 45.5508C191.232 44.9128 190.275 44.0729 189.52 43.0312C188.777 41.9896 188.224 40.8372 187.859 39.5742C187.508 38.2982 187.332 37.0221 187.332 35.7461C187.332 33.3112 187.742 31.1758 188.562 29.3398C189.383 27.5039 190.529 26.0716 192 25.043C193.484 24.0143 195.229 23.5 197.234 23.5C198.003 23.5 198.764 23.6302 199.52 23.8906C200.275 24.138 200.978 24.5221 201.629 25.043C202.293 25.5508 202.866 26.2018 203.348 26.9961V12.6211C203.348 12.2826 203.452 11.9896 203.66 11.7422C203.882 11.4948 204.135 11.3711 204.422 11.3711H207.078C207.378 11.3711 207.632 11.4948 207.84 11.7422C208.048 11.9896 208.152 12.2826 208.152 12.6211V37.6406C208.152 39.0599 208.211 40.3164 208.328 41.4102C208.458 42.5039 208.608 43.4284 208.777 44.1836C208.816 44.3529 208.836 44.5156 208.836 44.6719C208.836 45.0755 208.712 45.401 208.465 45.6484C208.23 45.8828 207.924 46 207.547 46H206.59C206.173 46 205.841 45.9284 205.594 45.7852C205.359 45.6289 205.177 45.3945 205.047 45.082C204.812 44.5352 204.63 43.9948 204.5 43.4609C204.383 42.9271 204.253 42.263 204.109 41.4688C203.172 43.1875 202.059 44.457 200.77 45.2773C199.493 46.0846 198.087 46.4883 196.551 46.4883ZM197.508 42.4258C198.341 42.4258 199.214 42.1849 200.125 41.7031C201.036 41.2214 201.805 40.4141 202.43 39.2812C203.068 38.1354 203.387 36.5924 203.387 34.6523C203.387 33.2591 203.139 32.0286 202.645 30.9609C202.15 29.8932 201.473 29.0534 200.613 28.4414C199.767 27.8294 198.803 27.5234 197.723 27.5234C196.811 27.5234 196.01 27.7253 195.32 28.1289C194.643 28.5326 194.077 29.0859 193.621 29.7891C193.165 30.4922 192.827 31.306 192.605 32.2305C192.384 33.1419 192.273 34.112 192.273 35.1406C192.273 36.7422 192.488 38.0833 192.918 39.1641C193.348 40.2448 193.953 41.0586 194.734 41.6055C195.516 42.1523 196.44 42.4258 197.508 42.4258ZM221.414 46.4883C220.294 46.4883 219.161 46.3646 218.016 46.1172C216.87 45.8698 215.9 45.4531 215.105 44.8672C214.728 44.5807 214.461 44.3138 214.305 44.0664C214.148 43.806 214.07 43.5456 214.07 43.2852C214.07 42.9857 214.142 42.6732 214.285 42.3477C214.441 42.0091 214.63 41.625 214.852 41.1953C214.982 40.974 215.145 40.8047 215.34 40.6875C215.535 40.5573 215.75 40.4922 215.984 40.4922C216.128 40.4922 216.277 40.5182 216.434 40.5703C216.59 40.6224 216.733 40.7005 216.863 40.8047C217.514 41.3255 218.25 41.7357 219.07 42.0352C219.891 42.3346 220.704 42.4844 221.512 42.4844C222.671 42.4844 223.582 42.3021 224.246 41.9375C224.923 41.5729 225.262 40.9154 225.262 39.9648C225.262 39.4049 225.06 38.9427 224.656 38.5781C224.266 38.2005 223.758 37.8815 223.133 37.6211C222.521 37.3607 221.863 37.1133 221.16 36.8789C220.457 36.6315 219.793 36.3516 219.168 36.0391C218.27 35.5833 217.469 35.0885 216.766 34.5547C216.076 34.0078 215.529 33.3438 215.125 32.5625C214.734 31.7812 214.539 30.8177 214.539 29.6719C214.539 28.2786 214.917 27.1263 215.672 26.2148C216.44 25.2904 217.417 24.6068 218.602 24.1641C219.799 23.7083 221.036 23.4805 222.312 23.4805C223.393 23.4805 224.415 23.5911 225.379 23.8125C226.355 24.0208 227.228 24.3529 227.996 24.8086C228.517 25.1081 228.777 25.5378 228.777 26.0977C228.777 26.3711 228.725 26.6641 228.621 26.9766C228.517 27.276 228.393 27.582 228.25 27.8945C228.12 28.207 227.957 28.4349 227.762 28.5781C227.579 28.7214 227.365 28.793 227.117 28.793C226.961 28.793 226.792 28.7669 226.609 28.7148C226.44 28.6628 226.258 28.5846 226.062 28.4805C225.49 28.207 224.936 27.9792 224.402 27.7969C223.868 27.6016 223.139 27.5039 222.215 27.5039C221.603 27.5039 220.965 27.6667 220.301 27.9922C219.65 28.3047 219.324 28.8646 219.324 29.6719C219.324 30.2708 219.552 30.7591 220.008 31.1367C220.464 31.5143 221.089 31.8659 221.883 32.1914C222.69 32.5169 223.602 32.901 224.617 33.3438C225.542 33.7344 226.401 34.1836 227.195 34.6914C227.99 35.1992 228.628 35.8372 229.109 36.6055C229.591 37.3607 229.832 38.3307 229.832 39.5156C229.832 40.7396 229.533 41.8854 228.934 42.9531C228.335 44.0078 227.417 44.8607 226.18 45.5117C224.943 46.1628 223.354 46.4883 221.414 46.4883Z" fill="#F7F3F3"/>
<circle cx="32" cy="32" r="32" fill="white"/>
</svg>
