<svg width="145" height="52" viewBox="0 0 145 52" fill="none" xmlns="http://www.w3.org/2000/svg">
<path d="M5.72266 40C5.4362 40 5.18229 39.8763 4.96094 39.6289C4.7526 39.3815 4.64844 39.0885 4.64844 38.75V11.3086C4.64844 10.9701 4.7526 10.6771 4.96094 10.4297C5.18229 10.1823 5.4362 10.0586 5.72266 10.0586H15.2344C16.3281 10.0586 17.4479 10.1888 18.5938 10.4492C19.7396 10.6966 20.8008 11.1068 21.7773 11.6797C22.7539 12.2526 23.5417 13.0273 24.1406 14.0039C24.7396 14.9674 25.0391 16.1654 25.0391 17.5977C25.0391 18.8867 24.7917 19.987 24.2969 20.8984C23.8151 21.8099 23.1836 22.5391 22.4023 23.0859C21.6211 23.6198 20.7812 23.9779 19.8828 24.1602V24.2383C21.0807 24.2904 22.2266 24.5638 23.3203 25.0586C24.4271 25.5534 25.332 26.2956 26.0352 27.2852C26.7383 28.2617 27.0898 29.5052 27.0898 31.0156C27.0898 32.6432 26.7904 34.0299 26.1914 35.1758C25.5924 36.3216 24.7656 37.2526 23.7109 37.9688C22.6693 38.6719 21.4583 39.1862 20.0781 39.5117C18.7109 39.8372 17.2526 40 15.7031 40H5.72266ZM15.6641 35.8398C16.7188 35.8398 17.7214 35.7031 18.6719 35.4297C19.6224 35.1562 20.3971 34.6745 20.9961 33.9844C21.5951 33.2943 21.8945 32.3307 21.8945 31.0938C21.8945 30.0781 21.6602 29.2708 21.1914 28.6719C20.7227 28.0729 20.1042 27.6237 19.3359 27.3242C18.5807 27.0117 17.7474 26.8099 16.8359 26.7188C15.9375 26.6146 15.0456 26.5625 14.1602 26.5625C13.7956 26.5625 13.431 26.569 13.0664 26.582C12.7148 26.5951 12.3568 26.6081 11.9922 26.6211C11.6406 26.6341 11.2826 26.6471 10.918 26.6602L9.49219 26.7188V35.8398H15.6641ZM9.49219 22.793C10.2734 22.793 11.0612 22.7865 11.8555 22.7734C12.6497 22.7604 13.444 22.7279 14.2383 22.6758C16.2305 22.5586 17.6953 22.1094 18.6328 21.3281C19.5833 20.5469 20.0586 19.4206 20.0586 17.9492C20.0586 16.6471 19.5573 15.6966 18.5547 15.0977C17.5521 14.4857 16.0677 14.1797 14.1016 14.1797H9.49219V22.793ZM34.1016 40C33.8151 40 33.5612 39.8763 33.3398 39.6289C33.1315 39.3815 33.0273 39.0885 33.0273 38.75V25.2539C33.0273 24.3815 33.0078 23.4961 32.9688 22.5977C32.9297 21.6862 32.819 20.7747 32.6367 19.8633C32.6237 19.7721 32.6107 19.6875 32.5977 19.6094C32.5846 19.5312 32.5781 19.4531 32.5781 19.375C32.5781 18.9714 32.6758 18.6393 32.8711 18.3789C33.0794 18.1055 33.3919 17.9688 33.8086 17.9688H34.8633C35.2799 17.9688 35.6055 18.0534 35.8398 18.2227C36.0742 18.3789 36.2565 18.6068 36.3867 18.9062C36.569 19.3099 36.7448 19.8893 36.9141 20.6445C37.0964 21.3867 37.2331 22.0638 37.3242 22.6758C37.3242 22.6888 37.3307 22.6953 37.3438 22.6953C37.3698 22.6953 37.3828 22.6888 37.3828 22.6758C37.5521 21.5299 37.8776 20.5729 38.3594 19.8047C38.8542 19.0365 39.4661 18.457 40.1953 18.0664C40.9245 17.6758 41.7253 17.4805 42.5977 17.4805C42.9232 17.4805 43.3724 17.513 43.9453 17.5781C44.5182 17.6302 45.026 17.7734 45.4688 18.0078C45.9245 18.2422 46.1198 18.6198 46.0547 19.1406L45.7422 21.6016C45.7031 21.9271 45.5924 22.1745 45.4102 22.3438C45.2409 22.513 45.013 22.5977 44.7266 22.5977C44.2708 22.5977 43.8216 22.5195 43.3789 22.3633C42.9492 22.194 42.4935 22.1094 42.0117 22.1094C41.3737 22.1094 40.7943 22.3112 40.2734 22.7148C39.7526 23.1055 39.3034 23.6198 38.9258 24.2578C38.5612 24.8958 38.2747 25.5729 38.0664 26.2891C37.8711 27.0052 37.7734 27.6888 37.7734 28.3398V38.75C37.7734 39.0885 37.6693 39.3815 37.4609 39.6289C37.2526 39.8763 36.9987 40 36.6992 40H34.1016ZM58.6523 40.4883C56.4258 40.4883 54.4857 39.9935 52.832 39.0039C51.1914 38.0143 49.9154 36.6536 49.0039 34.9219C48.0924 33.1771 47.6367 31.1849 47.6367 28.9453C47.6367 26.6406 48.125 24.6289 49.1016 22.9102C50.0781 21.1914 51.3997 19.8568 53.0664 18.9062C54.7331 17.9557 56.5951 17.4805 58.6523 17.4805C61.0612 17.4805 63.0794 17.9557 64.707 18.9062C66.3477 19.8568 67.5846 21.1914 68.418 22.9102C69.2513 24.6289 69.668 26.6406 69.668 28.9453C69.668 31.25 69.1797 33.2682 68.2031 35C67.2266 36.7318 65.9049 38.0794 64.2383 39.043C62.5846 40.0065 60.7227 40.4883 58.6523 40.4883ZM58.7305 36.4453C60.1888 36.4453 61.3607 36.1133 62.2461 35.4492C63.1315 34.7852 63.776 33.8932 64.1797 32.7734C64.5833 31.6406 64.7852 30.3971 64.7852 29.043C64.7852 27.8841 64.5898 26.7318 64.1992 25.5859C63.8086 24.4271 63.1641 23.4635 62.2656 22.6953C61.3802 21.9271 60.1693 21.543 58.6328 21.543C57.1615 21.543 55.9766 21.9141 55.0781 22.6562C54.1797 23.3984 53.5286 24.3555 53.125 25.5273C52.7214 26.6992 52.5195 27.9297 52.5195 29.2188C52.5195 30.4427 52.7409 31.6081 53.1836 32.7148C53.6393 33.8216 54.3229 34.7201 55.2344 35.4102C56.1589 36.1003 57.3242 36.4453 58.7305 36.4453ZM84.9805 40.4883C82.7539 40.4883 80.8138 39.9935 79.1602 39.0039C77.5195 38.0143 76.2435 36.6536 75.332 34.9219C74.4206 33.1771 73.9648 31.1849 73.9648 28.9453C73.9648 26.6406 74.4531 24.6289 75.4297 22.9102C76.4062 21.1914 77.7279 19.8568 79.3945 18.9062C81.0612 17.9557 82.9232 17.4805 84.9805 17.4805C87.3893 17.4805 89.4076 17.9557 91.0352 18.9062C92.6758 19.8568 93.9128 21.1914 94.7461 22.9102C95.5794 24.6289 95.9961 26.6406 95.9961 28.9453C95.9961 31.25 95.5078 33.2682 94.5312 35C93.5547 36.7318 92.2331 38.0794 90.5664 39.043C88.9128 40.0065 87.0508 40.4883 84.9805 40.4883ZM85.0586 36.4453C86.5169 36.4453 87.6888 36.1133 88.5742 35.4492C89.4596 34.7852 90.1042 33.8932 90.5078 32.7734C90.9115 31.6406 91.1133 30.3971 91.1133 29.043C91.1133 27.8841 90.918 26.7318 90.5273 25.5859C90.1367 24.4271 89.4922 23.4635 88.5938 22.6953C87.7083 21.9271 86.4974 21.543 84.9609 21.543C83.4896 21.543 82.3047 21.9141 81.4062 22.6562C80.5078 23.3984 79.8568 24.3555 79.4531 25.5273C79.0495 26.6992 78.8477 27.9297 78.8477 29.2188C78.8477 30.4427 79.069 31.6081 79.5117 32.7148C79.9674 33.8216 80.651 34.7201 81.5625 35.4102C82.487 36.1003 83.6523 36.4453 85.0586 36.4453ZM109.551 40.4883C107.949 40.4883 106.562 40.1758 105.391 39.5508C104.232 38.9128 103.275 38.0729 102.52 37.0312C101.777 35.9896 101.224 34.8372 100.859 33.5742C100.508 32.2982 100.332 31.0221 100.332 29.7461C100.332 27.3112 100.742 25.1758 101.562 23.3398C102.383 21.5039 103.529 20.0716 105 19.043C106.484 18.0143 108.229 17.5 110.234 17.5C111.003 17.5 111.764 17.6302 112.52 17.8906C113.275 18.138 113.978 18.5221 114.629 19.043C115.293 19.5508 115.866 20.2018 116.348 20.9961V6.62109C116.348 6.28255 116.452 5.98958 116.66 5.74219C116.882 5.49479 117.135 5.37109 117.422 5.37109H120.078C120.378 5.37109 120.632 5.49479 120.84 5.74219C121.048 5.98958 121.152 6.28255 121.152 6.62109V31.6406C121.152 33.0599 121.211 34.3164 121.328 35.4102C121.458 36.5039 121.608 37.4284 121.777 38.1836C121.816 38.3529 121.836 38.5156 121.836 38.6719C121.836 39.0755 121.712 39.401 121.465 39.6484C121.23 39.8828 120.924 40 120.547 40H119.59C119.173 40 118.841 39.9284 118.594 39.7852C118.359 39.6289 118.177 39.3945 118.047 39.082C117.812 38.5352 117.63 37.9948 117.5 37.4609C117.383 36.9271 117.253 36.263 117.109 35.4688C116.172 37.1875 115.059 38.457 113.77 39.2773C112.493 40.0846 111.087 40.4883 109.551 40.4883ZM110.508 36.4258C111.341 36.4258 112.214 36.1849 113.125 35.7031C114.036 35.2214 114.805 34.4141 115.43 33.2812C116.068 32.1354 116.387 30.5924 116.387 28.6523C116.387 27.2591 116.139 26.0286 115.645 24.9609C115.15 23.8932 114.473 23.0534 113.613 22.4414C112.767 21.8294 111.803 21.5234 110.723 21.5234C109.811 21.5234 109.01 21.7253 108.32 22.1289C107.643 22.5326 107.077 23.0859 106.621 23.7891C106.165 24.4922 105.827 25.306 105.605 26.2305C105.384 27.1419 105.273 28.112 105.273 29.1406C105.273 30.7422 105.488 32.0833 105.918 33.1641C106.348 34.2448 106.953 35.0586 107.734 35.6055C108.516 36.1523 109.44 36.4258 110.508 36.4258ZM134.414 40.4883C133.294 40.4883 132.161 40.3646 131.016 40.1172C129.87 39.8698 128.9 39.4531 128.105 38.8672C127.728 38.5807 127.461 38.3138 127.305 38.0664C127.148 37.806 127.07 37.5456 127.07 37.2852C127.07 36.9857 127.142 36.6732 127.285 36.3477C127.441 36.0091 127.63 35.625 127.852 35.1953C127.982 34.974 128.145 34.8047 128.34 34.6875C128.535 34.5573 128.75 34.4922 128.984 34.4922C129.128 34.4922 129.277 34.5182 129.434 34.5703C129.59 34.6224 129.733 34.7005 129.863 34.8047C130.514 35.3255 131.25 35.7357 132.07 36.0352C132.891 36.3346 133.704 36.4844 134.512 36.4844C135.671 36.4844 136.582 36.3021 137.246 35.9375C137.923 35.5729 138.262 34.9154 138.262 33.9648C138.262 33.4049 138.06 32.9427 137.656 32.5781C137.266 32.2005 136.758 31.8815 136.133 31.6211C135.521 31.3607 134.863 31.1133 134.16 30.8789C133.457 30.6315 132.793 30.3516 132.168 30.0391C131.27 29.5833 130.469 29.0885 129.766 28.5547C129.076 28.0078 128.529 27.3438 128.125 26.5625C127.734 25.7812 127.539 24.8177 127.539 23.6719C127.539 22.2786 127.917 21.1263 128.672 20.2148C129.44 19.2904 130.417 18.6068 131.602 18.1641C132.799 17.7083 134.036 17.4805 135.312 17.4805C136.393 17.4805 137.415 17.5911 138.379 17.8125C139.355 18.0208 140.228 18.3529 140.996 18.8086C141.517 19.1081 141.777 19.5378 141.777 20.0977C141.777 20.3711 141.725 20.6641 141.621 20.9766C141.517 21.276 141.393 21.582 141.25 21.8945C141.12 22.207 140.957 22.4349 140.762 22.5781C140.579 22.7214 140.365 22.793 140.117 22.793C139.961 22.793 139.792 22.7669 139.609 22.7148C139.44 22.6628 139.258 22.5846 139.062 22.4805C138.49 22.207 137.936 21.9792 137.402 21.7969C136.868 21.6016 136.139 21.5039 135.215 21.5039C134.603 21.5039 133.965 21.6667 133.301 21.9922C132.65 22.3047 132.324 22.8646 132.324 23.6719C132.324 24.2708 132.552 24.7591 133.008 25.1367C133.464 25.5143 134.089 25.8659 134.883 26.1914C135.69 26.5169 136.602 26.901 137.617 27.3438C138.542 27.7344 139.401 28.1836 140.195 28.6914C140.99 29.1992 141.628 29.8372 142.109 30.6055C142.591 31.3607 142.832 32.3307 142.832 33.5156C142.832 34.7396 142.533 35.8854 141.934 36.9531C141.335 38.0078 140.417 38.8607 139.18 39.5117C137.943 40.1628 136.354 40.4883 134.414 40.4883Z" fill="#0A0903"/>
</svg>
